<?xml version="1.0" encoding="UTF-8" standalone="no"?>
<svg width="22px" height="23px" viewBox="0 0 22 23" version="1.1" xmlns="http://www.w3.org/2000/svg" xmlns:xlink="http://www.w3.org/1999/xlink">
    <!-- Generator: sketchtool 3.8.3 (29802) - http://www.bohemiancoding.com/sketch -->
    <title>B0F5C6BC-CBED-4944-8A22-630EF806DD95</title>
    <desc>Created with sketchtool.</desc>
    <defs></defs>
    <g id="InternalWeb" stroke="none" stroke-width="1" fill="none" fill-rule="evenodd">
        <g id="02.-KAI-Web-Client-|-Empty-List" transform="translate(-1170.000000, -40.000000)" fill="#5AEB5C">
            <g id="btn_settings" transform="translate(1170.000000, 40.000000)">
                <path d="M20.1816173,16.2027333 L19.4541218,17.5306 C19.2531805,17.8978333 18.8087629,18.0228 18.4604157,17.8112 L16.4400023,16.5814667 C15.4147616,17.8012333 14.0279733,18.6752333 12.4541776,19.0125667 L12.4541776,20.7 C12.4541776,21.1239667 12.129298,21.4666667 11.7274154,21.4666667 L10.2724244,21.4666667 C9.8705418,21.4666667 9.54566226,21.1239667 9.54566226,20.7 L9.54566226,19.0125667 C7.97186652,18.6752333 6.58507819,17.8012333 5.55983754,16.5814667 L3.53942409,17.8112 C3.19107695,18.0228 2.74665932,17.8978333 2.54571802,17.5306 L1.81822251,16.2027333 C1.61728121,15.8362667 1.73681928,15.3670667 2.08443306,15.1562333 L4.1129135,13.9203667 C3.87163727,13.1583 3.72716487,12.3479333 3.72716487,11.5 C3.72716487,10.6520667 3.87163727,9.84246667 4.1129135,9.07963333 L2.08443306,7.84453333 C1.73681928,7.63293333 1.61728121,7.1645 1.81822251,6.79726667 L2.54571802,5.4694 C2.74665932,5.10293333 3.19107695,4.9772 3.53942409,5.1888 L5.55983754,6.41853333 C6.58507819,5.19876667 7.97186652,4.32476667 9.54566226,3.98743333 L9.54566226,2.3 C9.54566226,1.87603333 9.8705418,1.53333333 10.2724244,1.53333333 L11.7274154,1.53333333 C12.129298,1.53333333 12.4541776,1.87603333 12.4541776,2.3 L12.4541776,3.98743333 C14.0279733,4.32476667 15.4147616,5.19876667 16.4400023,6.41853333 L18.4604157,5.1888 C18.8087629,4.9772 19.2531805,5.10293333 19.4541218,5.4694 L20.1816173,6.79726667 C20.3825586,7.1645 20.2630206,7.63293333 19.9154068,7.84453333 L17.8869263,9.07963333 C18.1282026,9.84246667 18.272675,10.6520667 18.272675,11.5 C18.272675,12.3479333 18.1282026,13.1583 17.8869263,13.9203667 L19.9154068,15.1562333 C20.2630206,15.3670667 20.3825586,15.8362667 20.1816173,16.2027333 L20.1816173,16.2027333 Z M21.2728606,14.2109333 L19.5692597,13.1744 C19.6645968,12.6300667 19.727666,12.0742333 19.727666,11.5 C19.727666,10.9265333 19.6645968,10.3699333 19.5692597,9.8256 L21.2728606,8.78906667 C21.9688215,8.36586667 22.206431,7.42746667 21.8045484,6.69453333 L20.3502907,4.0388 C19.9491414,3.30586667 19.0588395,3.05363333 18.3636119,3.4776 L16.6424103,4.5241 C15.8386451,3.80343333 14.9248756,3.21386667 13.9091686,2.83436667 L13.9091686,1.53333333 C13.9091686,0.686933333 13.2579428,0 12.4541776,0 L9.54566226,0 C8.74189705,0 8.09067123,0.686933333 8.09067123,1.53333333 L8.09067123,2.83436667 C7.07496429,3.21386667 6.16119472,3.80343333 5.35742951,4.5241 L3.63622793,3.4776 C2.94100036,3.05363333 2.05069839,3.30586667 1.64954915,4.0388 L0.195291488,6.69453333 C-0.206591114,7.42746667 0.0317516702,8.36586667 0.726979238,8.78906667 L2.43058012,9.8256 C2.33524301,10.3699333 2.27217384,10.9265333 2.27217384,11.5 C2.27217384,12.0742333 2.33524301,12.6300667 2.43058012,13.1744 L0.726979238,14.2109333 C0.0317516702,14.6341333 -0.206591114,15.5725333 0.195291488,16.3054667 L1.64954915,18.9612 C2.05069839,19.6941333 2.94100036,19.9463667 3.63622793,19.5224 L5.35742951,18.4759 C6.16119472,19.1965667 7.07496429,19.7869 8.09067123,20.1656333 L8.09067123,21.4666667 C8.09067123,22.3130667 8.74189705,23 9.54566226,23 L12.4541776,23 C13.2579428,23 13.9091686,22.3130667 13.9091686,21.4666667 L13.9091686,20.1656333 C14.9248756,19.7869 15.8386451,19.1965667 16.6424103,18.4759 L18.3636119,19.5224 C19.0588395,19.9463667 19.9491414,19.6941333 20.3502907,18.9612 L21.8045484,16.3054667 C22.206431,15.5725333 21.9688215,14.6341333 21.2728606,14.2109333 L21.2728606,14.2109333 Z M10.9999199,13.8 C9.79500548,13.8 8.81816674,12.7703667 8.81816674,11.5 C8.81816674,10.2304 9.79500548,9.2 10.9999199,9.2 C12.2048344,9.2 13.1816731,10.2304 13.1816731,11.5 C13.1816731,12.7703667 12.2048344,13.8 10.9999199,13.8 L10.9999199,13.8 Z M10.9999199,7.66666667 C8.99124027,7.66666667 7.36390908,9.38246667 7.36390908,11.5 C7.36390908,13.6175333 8.99124027,15.3333333 10.9999199,15.3333333 C13.0085996,15.3333333 14.6366641,13.6175333 14.6366641,11.5 C14.6366641,9.38246667 13.0085996,7.66666667 10.9999199,7.66666667 L10.9999199,7.66666667 Z" id="Fill-172"></path>
            </g>
        </g>
    </g>
</svg>